<svg xmlns="http://www.w3.org/2000/svg" version="1.1" xmlns:xlink="http://www.w3.org/1999/xlink" xmlns:svgjs="http://svgjs.dev/svgjs" viewBox="0 0 1920 1080"><rect width="1920" height="1080" fill="#004cff"></rect><g transform="matrix(7.04171909509728e-17,1.15,-1.15,7.04171909509728e-17,1549.4323921203613,-527.6972509384154)"><path d="M0,-1080C0.8590791678724633,-995.2634315487825,13.984782393536074,-745.3664118699974,5.15447500723478,-571.5805892926949C-3.675832379066515,-397.79476671539237,-42.850062067881865,-215.8713799989077,-52.98184431780777,-37.28506453618488C-63.113626567733675,141.30125092653796,-68.37678299965684,306.13734530047986,-55.63621849232067,499.93730348364215C-42.8956539849845,693.7372616668044,21.444353579300945,947.2426283258274,23.46154272620926,1125.5146845627892C25.478731873117574,1303.786740799751,-39.622826489835916,1397.155421665878,-43.53308361087079,1569.5696409054133C-47.443340731905664,1741.9838601449485,-7.255513935145132,2061.5949401509024,0,2160L 1920 2160 L 1920 -1080 Z" fill="url(&quot;#SvgjsLinearGradient1133&quot;)"></path><path d="M192,-1080C194.58916799796893,-988.2205614954844,214.6560377453283,-716.3843596435177,207.53500798781363,-529.3233689729061C200.41397823029897,-342.26237830229456,141.04789033212822,-131.38748001035188,149.27382145491197,42.365944023669044C157.49975257769572,216.11936805768997,250.8052504664978,349.91590105414116,256.8905947245161,513.1971752312196C262.97593898253444,676.478449408298,203.13348852796406,842.1134008073444,185.78588700302188,1022.0535890861395C168.4382854780797,1201.9937773649344,151.76930007536663,1403.1805697516797,152.80498557486297,1592.8383049039899C153.8406710743593,1782.4960400563,185.4674975958105,2065.4730508173316,192,2160L 1920 2160 L 1920 -1080 Z" fill="url(&quot;#SvgjsLinearGradient1134&quot;)"></path><path d="M384,-1080C375.50327582941287,-969.707098224583,337.40297806009613,-620.5400238003238,333.0196549764773,-418.2425893474982C328.63633189285844,-215.94515489467267,361.8328283729535,-88.74397653873316,357.7000614982868,133.78460671695333C353.5672946236201,356.31318997263986,304.7958242704555,685.1111373042366,308.223053728477,916.9289101866209C311.6502831864985,1148.7466830690053,365.6339472011619,1317.5127290423625,378.2634382464157,1524.691244011259C390.89292929166953,1731.8697589801554,383.04390637440264,2054.11520733521,384,2160L 1920 2160 L 1920 -1080 Z" fill="url(&quot;#SvgjsLinearGradient1135&quot;)"></path><path d="M576,-1080C581.9056353332719,-1026.3322438802047,608.8940401755829,-880.0147685888347,611.4338119996313,-757.9934632812277C613.9735838236797,-635.9721579736207,592.0889498274715,-499.2915258850518,591.2386309442904,-347.8721681543582C590.3883120611093,-196.4528104236646,615.0659450437108,10.43240234213414,606.3318987005446,150.5226831029337C597.5978523573783,290.6129638637333,533.4278090212536,359.10499768040245,538.834352885293,492.66951641043926C544.2408967493325,626.2340351404761,644.0324023730908,823.2650902492339,638.7711618847811,951.9097954831544C633.5099213964714,1080.554500717075,505.82758520854736,1125.4942786802055,507.2669099554347,1264.537747813962C508.70623470232204,1403.5812169477183,635.9515953586777,1636.92690158802,647.4071103661053,1786.1706102856929C658.8626253735329,1935.4143189833658,587.9011850610175,2097.695101714282,576,2160L 1920 2160 L 1920 -1080 Z" fill="url(&quot;#SvgjsLinearGradient1136&quot;)"></path><path d="M768,-1080C772.2285516319569,-974.9020431199294,788.0210172114492,-666.7520523655461,793.3713097917414,-449.41225871957636C798.7216023720335,-232.07246507360665,789.7265854976055,2.650555828508004,800.1017554817529,224.03876187581818C810.4769254659003,445.42696792312836,864.5602706113201,674.8628857817138,855.622329696626,878.9169775642847C846.684388781932,1082.9710693468555,761.077831609693,1234.8494754986245,746.4741099935886,1448.3633125712438C731.8703883774842,1661.877149643863,764.4123516655981,2041.3938854285407,768,2160L 1920 2160 L 1920 -1080 Z" fill="url(&quot;#SvgjsLinearGradient1137&quot;)"></path><path d="M960,-1080C948.3049198661278,-965.7606462852941,888.8773743979076,-619.3958553165794,889.8295191967663,-394.56387771176435C890.7816639956251,-169.7319001069493,942.9151484758247,45.03795081663779,965.7128687931527,268.9918656288903C988.5105891104806,492.9457804411428,1029.4657217854108,744.9456923609107,1026.6158411007339,949.1596111617508C1023.7659604160569,1153.373529962591,959.716224868547,1292.4686469608896,948.6135846850914,1494.275378433931C937.5109445016358,1696.0821099069726,958.1022641141819,2049.045896405655,960,2160L 1920 2160 L 1920 -1080 Z" fill="url(&quot;#SvgjsLinearGradient1138&quot;)"></path><path d="M1152,-1080C1162.3178594944586,-993.3937323921957,1215.246508243813,-725.3071433748526,1213.907156966752,-560.3623943531742C1212.5678056896909,-395.4176453314958,1151.5286167601428,-275.4851941999157,1143.9638923376338,-90.33150586992971C1136.3991679151247,94.8221824600563,1174.2934699112457,343.1856029713156,1168.518810431698,550.5597356267417C1162.7441509521504,757.9338682821679,1115.631400261054,974.5021952617548,1109.3159354603488,1153.913290062627C1103.0004706596435,1333.3243848634995,1123.512010870858,1459.3451861090803,1130.6260216274663,1627.0263044319759C1137.7400323840748,1794.7074227548715,1148.4376702712443,2071.1710507386624,1152,2160L 1920 2160 L 1920 -1080 Z" fill="url(&quot;#SvgjsLinearGradient1139&quot;)"></path><path d="M1344,-1080C1347.067969479291,-993.8049211799398,1353.88859391801,-704.9224000011217,1362.407816875745,-562.8295270796388C1370.9270398334802,-420.73665415815583,1397.1810170585368,-364.7928003647503,1395.1153377464107,-227.44276247110247C1393.0496584342845,-90.09272457745467,1344.0684956275456,88.76159693430813,1350.0137410029877,261.2707002822479C1355.9589863784297,433.77980363018764,1424.8159626857737,637.9442314321801,1430.7868099990628,807.6118576165361C1436.757657312352,977.2794838008921,1385.8787614843475,1121.403843497257,1385.8388248827227,1279.2764573883837C1385.798888281098,1437.1490712795105,1437.5203278697677,1608.0602838613602,1430.547190389314,1754.8475409632963C1423.5740529088603,1901.6347980652324,1358.4245317315524,2092.4745901605493,1344,2160L 1920 2160 L 1920 -1080 Z" fill="url(&quot;#SvgjsLinearGradient1140&quot;)"></path><path d="M1536,-1080C1531.3362421321963,-1013.6069253200776,1518.1645347157419,-829.8069980073275,1508.0174527931774,-681.6415519204658C1497.870370870613,-533.476105833604,1464.6052469505728,-346.793526835505,1475.117508464613,-191.0073234788294C1485.629769978653,-35.22112012215376,1560.1508977073422,100.81681846431488,1571.091021877418,253.07566821958798C1582.0311460474936,405.3345179748611,1560.5832849225694,574.1422915560081,1540.7582534850671,722.5457750528092C1520.9332220475649,870.9492585496102,1465.172516170427,991.2167122712858,1452.1408332524036,1143.4965692003946C1439.1091503343803,1295.7764261295033,1448.5916281856607,1466.807678160861,1462.5681559769268,1636.2249166274619C1476.544683768193,1805.6421550940627,1523.7613593294877,2072.7041527712436,1536,2160L 1920 2160 L 1920 -1080 Z" fill="url(&quot;#SvgjsLinearGradient1141&quot;)"></path><path d="M1728,-1080C1722.5460346530836,-935.1025222917414,1698.5774250712216,-470.7326927009825,1695.276207918502,-210.61513375044802C1691.9749907657824,49.50242520008646,1696.3148415165415,230.24999520439243,1708.1926970836823,480.7053537032068C1720.0705526508232,731.1607122020212,1763.2421241686275,1012.2345761929728,1766.543341321347,1292.1170172424384C1769.8445584740666,1571.999458291904,1734.4238902202246,2015.352836207073,1728,2160L 1920 2160 L 1920 -1080 Z" fill="url(&quot;#SvgjsLinearGradient1142&quot;)"></path></g><defs><linearGradient x1="0.1" y1="0" x2="0" y2="1" id="SvgjsLinearGradient1133"><stop stop-color="#004cff" offset="0"></stop><stop stop-color="#0076ff" offset="0"></stop></linearGradient><linearGradient x1="0.1" y1="0" x2="0" y2="1" id="SvgjsLinearGradient1134"><stop stop-color="#2465ff" offset="0"></stop><stop stop-color="#2489ff" offset="0.1"></stop></linearGradient><linearGradient x1="0.1" y1="0" x2="0" y2="1" id="SvgjsLinearGradient1135"><stop stop-color="#497fff" offset="0"></stop><stop stop-color="#499dff" offset="0.2"></stop></linearGradient><linearGradient x1="0.1" y1="0" x2="0" y2="1" id="SvgjsLinearGradient1136"><stop stop-color="#6d98ff" offset="0"></stop><stop stop-color="#6db0ff" offset="0.3"></stop></linearGradient><linearGradient x1="0.1" y1="0" x2="0" y2="1" id="SvgjsLinearGradient1137"><stop stop-color="#91b2ff" offset="0"></stop><stop stop-color="#91c4ff" offset="0.4"></stop></linearGradient><linearGradient x1="0.1" y1="0" x2="0" y2="1" id="SvgjsLinearGradient1138"><stop stop-color="#b5cbff" offset="0"></stop><stop stop-color="#b5d7ff" offset="0.5"></stop></linearGradient><linearGradient x1="0.1" y1="0" x2="0" y2="1" id="SvgjsLinearGradient1139"><stop stop-color="#dae5ff" offset="0"></stop><stop stop-color="#daebff" offset="0.6"></stop></linearGradient><linearGradient x1="0.1" y1="0" x2="0" y2="1" id="SvgjsLinearGradient1140"><stop stop-color="#fefeff" offset="0"></stop><stop stop-color="#fefeff" offset="0.7"></stop></linearGradient><linearGradient x1="0.1" y1="0" x2="0" y2="1" id="SvgjsLinearGradient1141"><stop stop-color="#ffffff" offset="0"></stop><stop stop-color="#ffffff" offset="0.8"></stop></linearGradient><linearGradient x1="0.1" y1="0" x2="0" y2="1" id="SvgjsLinearGradient1142"><stop stop-color="#ffffff" offset="0"></stop><stop stop-color="#ffffff" offset="0.9"></stop></linearGradient></defs></svg>